# xmcd
#
# Track frame offsets: 
#        150
#        19857
#        32042
#        42278
#        54666
#        69344
#        89333
#        102009
#        111761
#        120064
#        130661
#        140935
#        151454
#        165714
#        175595
#        189293
#        199861
#        215785
#        237275
#
# Disc length: 3341 seconds
#
# Revision: 0
# Processed by: cddbd v1.5.2PL0 Copyright (c) Steve Scherf et al.
# Submitted via: ExactAudioCopy v0.95b4
#
DISCID=020d0b13
DTITLE=Various Artist - Wow That's What I Call Bluegrass
DYEAR=2003
DGENRE=Bluegrass
TTITLE0=01 Orange Blossom Special - Lester Flatt and the Nashville Gra
TTITLE0=ss Featuring 'Tater' Tate
TTITLE1=02 I'm Just a Used To Be To You - The Bluegrass Cardinals
TTITLE2=03 Bringing In The Georgia Mail -  Don Reno and Bill Harrell
TTITLE3=04 Somebody Loves You Darling - Marty Stuart With Curly Seckle
TTITLE3=r and the Nashville Grass
TTITLE4=05 Tennessee Stud - Lane Brown and the Nashville SuperPickers
TTITLE5=06 That Smell - Mark Thorton& the Nashville Superpickers
TTITLE6=07 I Wonder How the Old Folks Are at Home - Mac Wiseman
TTITLE7=08 Twelfth Street Rag - Arthur Smith and Don Reno
TTITLE8=09 Lee Highway Blues - Chubby Wise
TTITLE9=10 Hillbilly Fever - The Osborne Brothers
TTITLE10=11 Tripping Billies - Kenny Blackwell and The Nashville Superpi
TTITLE10=ckers
TTITLE11=12 Diesel On My Tail - Jim and Jesse
TTITLE12=13 Paint It Black - Brent Truitt and the Nashville Superpickers
TTITLE13=14 Old Camp Meeting Time - Grandpa Jones
TTITLE14=15 The Little Girl and the Dreadful Snake - The Valley Boys
TTITLE15=16 Sunny Side of the Mountain - Bobby Osborne
TTITLE16=17 Ruby - Jimmy Martin and the Sunny Mountain Boys, Featuring
TTITLE16=J.D. Crowe and Paul Williams
TTITLE17=18 I Still Haven't Found What I'm Looking For - Brentt Truitt
TTITLE17=and The Nashville Superpickers
TTITLE18=19 I Still Write Your Name In the Sand - Mac Wiseman
EXTD=
EXTT0=
EXTT1=
EXTT2=
EXTT3=
EXTT4=
EXTT5=
EXTT6=
EXTT7=
EXTT8=
EXTT9=
EXTT10=
EXTT11=
EXTT12=
EXTT13=
EXTT14=
EXTT15=
EXTT16=
EXTT17=
EXTT18=
PLAYORDER=
